<svg width="160" height="160" viewBox="0 0 160 160" fill="none" xmlns="http://www.w3.org/2000/svg">
<path d="M3 42.8871H53.1702V57.9839H19.2714V71.8226H51.2928V86.9194H19.2714V102.016H55.0477V117.113H3V42.8871Z" fill="#2F2F2F"/>
<path d="M116.366 62.1774C114.767 60.2204 112.785 58.7177 110.421 57.6694C108.126 56.621 105.449 56.0968 102.39 56.0968C99.3299 56.0968 96.4789 56.6909 93.8366 57.879C91.2637 59.0672 89.0038 60.7446 87.0568 62.9113C85.1793 65.0081 83.6843 67.5242 82.5717 70.4597C81.5287 73.3952 81.0072 76.5753 81.0072 80C81.0072 83.4946 81.5287 86.7097 82.5717 89.6452C83.6843 92.5108 85.1793 95.0269 87.0568 97.1935C88.9343 99.2903 91.1247 100.933 93.628 102.121C96.2008 103.309 98.9475 103.903 101.868 103.903C105.206 103.903 108.161 103.204 110.734 101.806C113.307 100.409 115.428 98.4516 117.096 95.9355L130.656 106.105C127.527 110.508 123.563 113.758 118.765 115.855C113.967 117.952 109.03 119 103.954 119C98.1826 119 92.8631 118.091 87.9955 116.274C83.128 114.457 78.9211 111.871 75.3748 108.516C71.8284 105.091 69.047 100.968 67.0304 96.1452C65.0834 91.3226 64.1099 85.9409 64.1099 80C64.1099 74.0591 65.0834 68.6774 67.0304 63.8548C69.047 59.0323 71.8284 54.9435 75.3748 51.5887C78.9211 48.164 83.128 45.543 87.9955 43.7258C92.8631 41.9086 98.1826 41 103.954 41C106.04 41 108.196 41.2097 110.421 41.629C112.716 41.9785 114.941 42.5726 117.096 43.4113C119.322 44.25 121.442 45.3683 123.459 46.7661C125.475 48.164 127.283 49.8763 128.883 51.9032L116.366 62.1774Z" fill="#2F2F2F"/>
<path d="M137.808 108.097C137.808 106.769 138.051 105.511 138.538 104.323C139.025 103.134 139.686 102.121 140.52 101.282C141.424 100.374 142.467 99.6747 143.649 99.1855C144.831 98.6962 146.083 98.4516 147.404 98.4516C148.725 98.4516 149.977 98.6962 151.159 99.1855C152.341 99.6747 153.349 100.374 154.184 101.282C155.088 102.121 155.783 103.134 156.27 104.323C156.757 105.511 157 106.769 157 108.097C157 109.425 156.757 110.683 156.27 111.871C155.783 113.059 155.088 114.108 154.184 115.016C153.349 115.855 152.341 116.519 151.159 117.008C149.977 117.497 148.725 117.742 147.404 117.742C146.083 117.742 144.831 117.497 143.649 117.008C142.467 116.519 141.424 115.855 140.52 115.016C139.686 114.108 139.025 113.059 138.538 111.871C138.051 110.683 137.808 109.425 137.808 108.097Z" fill="#2F2F2F"/>
</svg>
